<?xml version="1.0" encoding="iso-8859-1"?>
<svg xmlns="http://www.w3.org/2000/svg" xmlns:xlink="http://www.w3.org/1999/xlink" version="1.1" viewBox="0 0 295.821 295.821" enable-background="new 0 0 295.821 295.821" width="512px" height="512px">
  <g>
    <path d="m156.611,19.541v-10.84c0-5.22-3.48-8.701-8.701-8.701s-8.701,3.48-8.701,8.701v10.858c-77.695,4.281-139.209,64.924-139.209,137.052 0,5.22 3.48,8.701 8.701,8.701s8.701-3.48 8.701-8.701c0-10.441 8.701-19.141 19.141-19.141s19.141,8.701 19.141,19.141c0,5.22 3.48,8.701 8.701,8.701s8.701-3.48 8.701-8.701c0-10.441 8.701-19.141 19.141-19.141s19.141,8.701 19.141,19.141c0,5.22 3.48,8.701 8.701,8.701 5.22,0 8.701-3.48 8.701-8.701 0-7.517 4.594-13.99 10.997-17.105-0.331,0.974-0.557,2.018-0.557,3.185v123.549c0,6.96-5.22,12.181-12.181,12.181-6.96,0-12.181-5.22-12.181-12.181v-15.661c0-5.22-3.48-8.701-8.701-8.701-5.22,0-8.701,3.48-8.701,8.701v15.661c0,15.661 13.921,29.582 29.582,29.582 15.661,0 29.582-13.921 29.582-29.582v-123.55c0-1.166-0.226-2.21-0.557-3.185 6.421,3.115 10.997,9.605 10.997,17.105 0,5.22 3.48,8.701 8.701,8.701 5.22,0 8.701-3.48 8.701-8.701 0-10.441 8.701-19.141 19.141-19.141 10.441,0 19.141,8.701 19.141,19.141 0,5.22 3.48,8.701 8.701,8.701s8.701-3.48 8.701-8.701c0-10.441 8.701-19.141 19.141-19.141s19.141,8.701 19.141,19.141c0,5.22 3.48,8.701 8.701,8.701s8.701-3.48 8.701-8.701c0.001-73.815-61.513-132.91-139.209-137.069zm102.667,100.527c-10.441,0-20.882,3.48-27.842,12.181-6.96-6.96-17.401-12.181-27.842-12.181-10.441,0-20.882,3.48-27.842,12.181-6.96-6.96-17.401-12.181-27.842-12.181s-20.882,3.48-27.842,12.181c-6.96-6.96-17.401-12.181-27.842-12.181s-20.882,3.48-27.842,12.181c-6.96-6.96-17.401-12.181-27.842-12.181-4.907,0-9.484,0.922-13.66,2.523 16.131-49.628 66.438-86.049 125.027-86.049s108.897,36.404 125.028,86.049c-4.175-1.6-8.752-2.523-13.659-2.523z" fill="#FFFFFF"/>
  </g>
</svg>
